<svg width="51" height="213" viewBox="0 0 51 213" fill="none" xmlns="http://www.w3.org/2000/svg">
<path fill-rule="evenodd" clip-rule="evenodd" d="M256.382 149.615L220.534 185.941L171.594 173.175L157.937 123.525L193.463 87.5246L242.846 100.407L256.382 149.615ZM195 84.8252L245.279 97.9409L259.734 150.489L221.453 189.281L169.647 175.767L133.446 212.452L80.7109 198.695L66.8025 148.131L15.4062 134.724L0.951882 82.1759L39.072 43.547L25.0515 -7.42437L63.3325 -46.2163L115.696 -32.5568L152.303 -69.652L205.038 -55.8956L219.493 -3.34729L181.373 35.2816L195 84.8252ZM154.396 123.461L105.456 110.695L69.6086 147.021L83.1441 196.23L132.527 209.112L168.053 173.111L154.396 123.461ZM191.776 84.4144L155.928 120.741L106.545 107.859L93.0092 58.6504L128.857 22.3242L178.24 35.2062L191.776 84.4144ZM127.17 19.214L91.3223 55.5403L41.939 42.6583L28.4034 -6.54999L64.2512 -42.8762L113.635 -29.9942L127.17 19.214ZM180.293 32.1046L216.141 -4.22167L202.605 -53.4299L153.222 -66.3119L117.374 -29.9857L130.91 19.2226L180.293 32.1046ZM103.071 108.814L67.2227 145.141L17.8394 132.259L4.30382 83.0503L40.1516 46.724L89.535 59.606L103.071 108.814Z" fill="url(#paint0_radial_0_206)" fill-opacity="0.14"/>
<defs>
<radialGradient id="paint0_radial_0_206" cx="0" cy="0" r="1" gradientUnits="userSpaceOnUse" gradientTransform="translate(120.698 77.4998) rotate(-105.38) scale(134.5 116.698)">
<stop stop-color="green"/>
<stop offset="1" stop-color="#999999" stop-opacity="0"/>
</radialGradient>
</defs>
</svg>
