<svg width="910" height="910" viewBox="0 0 910 910" fill="none" xmlns="http://www.w3.org/2000/svg">
<g filter="url(#filter0_f_0_129)">
<circle cx="455" cy="455" r="183" fill="#83CD28" fill-opacity="0.4"/>
</g>
<path fill-rule="evenodd" clip-rule="evenodd" d="M438.5 155.464L394.302 180.982V232.018L437.769 257.114L482.302 231.403V180.753L438.5 155.464ZM439.699 260.308L483.134 235.231L526.302 260.153V310.692L482.269 336.114L439.699 311.536V260.308ZM573.5 231L573.699 231.115V181.982L529.5 156.464L485.699 181.753V232.558L528.25 257.125L573.5 231ZM576.699 180.25V232.847L619 257.269L664.302 231.115V179.25L711.5 152L758.698 179.25V231.692L804.698 258.25V310.692L850.698 337.25V389.692L896.698 416.25V470.75L852.698 496.153V549.75L805.5 577L804.698 576.537V628.75L758.698 655.308V707.75L711.5 735L664.5 707.865L617.5 735L572 708.731L526.5 735L481 708.731L435.5 735L390 708.731L344.5 735L299.5 709.019L254.5 735L208.5 708.442L162.5 735L115.302 707.75V655.308L69.3017 628.75V575.731L24.3017 549.75V495.25L70.3017 468.692V416.25L115.302 390.269V339.308L69.3017 312.75V258.25L116.5 231L163.699 258.25V310.692L208.5 336.558L254.302 310.115V261.885L207.302 234.75V180.25L254.5 153L299.634 179.058L346.5 152L392.5 178.558L438.5 152L484.866 178.769L529.5 153L576.699 180.25ZM529.699 417.753V469.247L573.5 494.536L617.699 469.018V417.982L573.5 392.464L529.699 417.753ZM482.019 392.742L526.302 418.308V468.692L482.019 494.258L438.302 469.018V417.982L482.019 392.742ZM301.366 234.942L345.302 260.308V310.692L301.019 336.258L257.302 311.018V260.382L301.366 234.942ZM115.302 547.692L71.0194 573.258L27.3017 548.018V496.982L71.5001 471.464L115.302 496.753V547.692ZM72.3017 576.537V627.018L116.5 652.536L160.699 627.018V575.982L116.981 550.742L72.3017 576.537ZM664.981 336.258L620.699 310.692V259.753L664.5 234.464L708.698 259.982V311.018L664.981 336.258ZM619.019 313.742L575.302 338.982V390.018L619.5 415.536L663.698 390.018V339.537L619.019 313.742ZM530.199 261.597V311.536L573.5 336.536L617.302 311.247V259.753L575.347 235.53L530.199 261.597ZM480.302 338.753L437.481 314.03L393.699 339.308V390.558L436.731 415.403L480.302 390.247V338.753ZM527.981 415.258L571.699 390.018V338.982L528.231 313.886L483.699 339.597V389.692L527.981 415.258ZM388.302 654.753V706.247L344.5 731.536L301.699 706.824V655.019L345.231 629.886L388.302 654.753ZM525.302 575.753V626.692L481.019 652.258L437.699 627.247V576.308L481.981 550.742L525.302 575.753ZM343.302 626.692V575.731L300 550.731L255.802 576.249V626.751L299.5 651.981L343.302 626.692ZM345.25 573.125L389.302 547.692V497.019L345.75 471.875L301.699 497.308V547.981L345.25 573.125ZM390.019 652.258L347.199 627.536V576.019L390.981 550.742L434.302 575.753V626.692L390.019 652.258ZM482.699 655.308V706.247L526.5 731.536L570.302 706.247V654.753L526.981 629.742L482.699 655.308ZM528.699 627.247L572.019 652.258L616.699 626.463V575.982L572.981 550.742L528.699 576.308V627.247ZM480.302 547.692V496.753L436.731 471.597L392.699 497.019V548.247L436.019 573.258L480.302 547.692ZM527.019 573.258L483.699 548.247V497.308L527.981 471.742L571.699 496.982V547.463L527.019 573.258ZM435.199 418.249V468.751L391 494.269L347.699 469.269V418.308L391.5 393.019L435.199 418.249ZM297.302 654.442L254.269 629.597L210.302 654.982V706.018L254.5 731.536L297.302 706.824V654.442ZM573.699 706.247L617.5 731.536L661.698 706.018V654.982L617.981 629.742L573.699 655.308V706.247ZM118.699 548.247V497.308L162.981 471.742L206.699 496.982V548.018L162.5 573.536L118.699 548.247ZM161.302 468.692V418.308L117.019 392.742L73.3017 417.982V469.018L117.019 494.258L161.302 468.692ZM298.699 181.982V232.618L254.302 258.25V258.421L210.302 233.018V181.982L254.5 156.464L298.699 181.982ZM164.699 417.753V469.247L208.5 494.536L252.699 469.018V417.982L208.5 392.464L164.699 417.753ZM302.302 339.537V390.018L345.769 415.114L389.302 389.981V338.176L346.981 313.742L302.302 339.537ZM348.699 311.247L391.519 335.97L435.802 310.403V259.464L392.5 234.464L348.699 259.753V311.247ZM343.802 417.464V468.981L300.019 494.258L256.302 469.018V417.982L300.5 392.464L343.802 417.464ZM164.302 575.982L208.5 550.464L252.699 575.982V627.018L208.5 652.536L164.302 627.018V575.982ZM254.5 313.464L210.302 338.982V390.018L254.5 415.536L298.699 390.018V338.982L254.5 313.464ZM72.3017 259.982L116.5 234.464L160.699 259.982V311.018L116.5 336.536L72.3017 311.018V259.982ZM759.302 389.463L803.981 415.258L847.698 390.018V338.982L803.5 313.464L759.302 338.982V389.463ZM714.302 417.982L758.019 392.742L802.302 418.308V469.247L758.5 494.536L714.302 469.018V417.982ZM804.519 472.03L849.5 498L849.698 497.885V548.018L805.5 573.536L761.302 548.018V496.982L804.519 472.03ZM850.481 493.97L893.698 469.018V417.982L849.5 392.464L805.698 417.753V468.115L850.481 493.97ZM711.5 313.464L667.302 338.982V390.018L711.5 415.536L755.698 390.018V338.982L711.5 313.464ZM713.302 259.982L757.5 234.464L801.698 259.982V311.018L757.5 336.536L713.302 311.018V259.982ZM711.5 155.464L667.302 180.982V232.018L711.5 257.536L755.698 232.018V180.982L711.5 155.464ZM665.5 392.464L621.302 417.982V469.018L665.5 494.536L709.698 469.018V417.982L665.5 392.464ZM667.302 496.982L711.5 471.464L755.698 496.982V548.018L711.5 573.536L667.302 548.018V496.982ZM757.5 550.464L713.302 575.982V627.018L757.5 652.536L801.698 627.018V575.982L757.5 550.464ZM162.5 629.464L118.302 654.982V706.018L162.5 731.536L206.699 706.018V654.982L162.5 629.464ZM575.302 496.982L619.5 471.464L663.698 496.982V548.018L619.5 573.536L575.302 548.018V496.982ZM665.5 550.464L621.302 575.982V627.018L665.5 652.536L709.698 627.018V575.982L665.5 550.464ZM667.302 654.982L711.5 629.464L755.698 654.982V706.018L711.5 731.536L667.302 706.018V654.982Z" fill="url(#paint0_radial_0_129)" fill-opacity="0.14"/>
<defs>
<filter id="filter0_f_0_129" x="0" y="0" width="910" height="910" filterUnits="userSpaceOnUse" color-interpolation-filters="sRGB">
<feFlood flood-opacity="0" result="BackgroundImageFix"/>
<feBlend mode="normal" in="SourceGraphic" in2="BackgroundImageFix" result="shape"/>
<feGaussianBlur stdDeviation="136" result="effect1_foregroundBlur_0_129"/>
</filter>
<radialGradient id="paint0_radial_0_129" cx="0" cy="0" r="1" gradientUnits="userSpaceOnUse" gradientTransform="translate(460.5 443.5) rotate(90) scale(291.5 419.287)">
<stop stop-color="white"/>
<stop offset="1" stop-color="#999999" stop-opacity="0"/>
</radialGradient>
</defs>
</svg>
