<svg width="418" height="111" viewBox="0 0 418 111" fill="none" xmlns="http://www.w3.org/2000/svg">
<path d="M292.968 19.2607V106.738M130.638 1.05132C131.052 1.21089 131.419 1.43098 131.797 1.66212C132.018 1.79138 132.239 1.92058 132.46 2.04971C132.572 2.1161 132.683 2.18248 132.798 2.25087C133.316 2.55607 133.841 2.84735 134.365 3.13927C134.573 3.25532 134.78 3.3714 134.988 3.48752C135.538 3.79554 136.09 4.10202 136.643 4.40806C137.091 4.65715 137.54 4.90666 137.989 5.15633C138.209 5.27827 138.428 5.40006 138.648 5.52172C138.96 5.69512 139.272 5.86932 139.584 6.04371C139.723 6.12027 139.723 6.12027 139.863 6.19838C141.514 7.1246 141.514 7.12461 141.81 8.03194C141.908 8.51236 141.923 8.98043 141.922 9.46892C141.922 9.55232 141.922 9.63571 141.922 9.72164C141.923 10.0017 141.923 10.2818 141.922 10.562C141.923 10.7645 141.923 10.9672 141.923 11.1697C141.924 11.727 141.924 12.2842 141.924 12.8415C141.924 13.4423 141.924 14.0431 141.925 14.644C141.925 15.8212 141.926 16.9985 141.926 18.1759C141.926 19.1327 141.926 20.0896 141.926 21.0464C141.926 21.3217 141.926 21.5972 141.927 21.8726C141.927 21.9753 141.927 21.9753 141.927 22.0801C141.927 24.0061 141.928 25.9321 141.928 27.8581C141.928 27.9308 141.928 28.0034 141.928 28.0782C141.928 28.4463 141.928 28.8143 141.928 29.1823C141.928 29.292 141.928 29.292 141.928 29.4039C141.928 29.5517 141.928 29.6995 141.928 29.8474C141.927 32.1471 141.928 34.4468 141.93 36.7465C141.931 39.3302 141.932 41.914 141.932 44.4977C141.932 44.7732 141.932 45.0488 141.932 45.3243C141.932 45.4261 141.932 45.4261 141.932 45.5299C141.932 46.6214 141.932 47.713 141.933 48.8044C141.934 49.9017 141.934 50.9988 141.934 52.096C141.933 52.6903 141.933 53.2846 141.934 53.879C141.935 54.423 141.935 54.9672 141.934 55.5113C141.934 55.7081 141.934 55.9048 141.935 56.1016C141.941 58.6744 141.941 58.6744 141.234 59.4021C140.801 59.7659 140.315 60.0294 139.821 60.2993C139.646 60.3973 139.471 60.4952 139.297 60.5933C139.119 60.6931 138.941 60.7924 138.762 60.8916C138.249 61.1796 137.741 61.478 137.233 61.7765C136.372 62.2804 135.507 62.7779 134.64 63.2724C132.906 64.261 131.176 65.2566 129.453 66.2641C128.459 66.845 127.461 67.4175 126.461 67.9872C125.928 68.2912 125.394 68.596 124.863 68.9051C124.732 68.982 124.732 68.982 124.596 69.0605C124.435 69.1544 124.275 69.2487 124.113 69.3432C123.411 69.7533 122.868 69.8693 122.059 69.7606C121.564 69.5791 121.117 69.3279 120.663 69.0625C120.602 69.0272 120.54 68.992 120.477 68.9557C120.136 68.7586 119.796 68.5583 119.458 68.3563C118.884 68.0145 118.305 67.6816 117.726 67.3485C117.616 67.2849 117.506 67.2214 117.392 67.1559C117.166 67.0254 116.939 66.8949 116.712 66.7645C116.167 66.4504 115.622 66.1359 115.077 65.8215C114.86 65.6968 114.645 65.5722 114.429 65.4475C113.132 64.6996 111.835 63.9517 110.538 63.2038C110.432 63.142 110.324 63.0803 110.214 63.0167C109.999 62.8924 109.783 62.7682 109.568 62.6439C108.903 62.2608 108.239 61.8779 107.575 61.4954C107.249 61.3073 106.922 61.1187 106.596 60.93C106.226 60.7158 105.854 60.504 105.481 60.295C105.403 60.251 105.325 60.207 105.246 60.1615C105.107 60.0828 104.967 60.005 104.828 59.9286C104.249 59.5978 103.75 59.1222 103.506 58.4918C103.487 58.2076 103.479 57.9333 103.48 57.6491C103.479 57.5203 103.479 57.5203 103.479 57.3889C103.478 57.1008 103.478 56.8127 103.479 56.5245C103.478 56.3181 103.478 56.1118 103.477 55.9053C103.476 55.3443 103.476 54.7832 103.476 54.2222C103.476 53.7541 103.475 53.2859 103.475 52.8178C103.474 51.7134 103.474 50.609 103.474 49.5047C103.475 48.365 103.474 47.2252 103.472 46.0855C103.47 45.1074 103.469 44.1293 103.47 43.1512C103.47 42.5669 103.47 41.9825 103.468 41.3981C103.467 40.8486 103.467 40.2991 103.468 39.7495C103.469 39.5477 103.468 39.346 103.468 39.1444C103.467 38.869 103.467 38.5937 103.469 38.3184C103.468 38.2385 103.467 38.1586 103.466 38.0763C103.472 37.4624 103.624 37.0591 104.036 36.5892C104.312 36.3466 104.585 36.1592 104.901 35.9708C104.985 35.92 104.985 35.92 105.071 35.8682C105.685 35.501 106.306 35.1474 106.928 34.7951C107.176 34.6548 107.422 34.5142 107.67 34.3736C107.73 34.3387 107.792 34.3037 107.855 34.2676C108.437 33.9364 109.014 33.5998 109.591 33.2619C110.452 32.7576 111.317 32.2601 112.184 31.766C113.154 31.2136 114.12 30.6557 115.084 30.0924C116.023 29.5437 116.963 29.0004 117.906 28.458C118.305 28.2284 118.703 27.9982 119.102 27.7672C119.278 27.6643 119.456 27.5614 119.633 27.4586C119.857 27.3297 120.079 27.2006 120.301 27.0713C122.209 25.9671 122.209 25.9671 123.057 26.0818C123.762 26.3009 124.364 26.6587 124.996 27.0354C125.101 27.0971 125.205 27.1588 125.313 27.2225C125.799 27.5085 126.282 27.7969 126.764 28.0872C126.88 28.1562 126.88 28.1562 126.998 28.2265C127.139 28.3108 127.279 28.396 127.419 28.4819C128.001 28.831 128.001 28.831 128.657 28.8253C128.748 28.8001 128.748 28.8001 128.842 28.7743C128.842 28.7178 128.842 28.6612 128.842 28.6029C128.85 25.2511 128.86 21.8993 128.87 18.5475C128.871 18.1453 128.872 17.743 128.874 17.3406C128.874 17.2605 128.874 17.1804 128.874 17.098C128.878 15.8005 128.882 14.5031 128.885 13.2056C128.888 11.8746 128.892 10.5437 128.896 9.21269C128.899 8.39119 128.901 7.56969 128.903 6.74819C128.904 6.18511 128.906 5.62205 128.908 5.05897C128.909 4.73394 128.91 4.40892 128.91 4.0839C128.911 3.73166 128.912 3.37943 128.914 3.02719C128.914 2.92427 128.914 2.82134 128.914 2.7153C128.914 2.62086 128.915 2.52642 128.916 2.42912C128.916 2.30717 128.916 2.30717 128.917 2.18276C128.956 1.817 129.092 1.52968 129.285 1.2196C129.709 0.940208 130.145 0.981671 130.638 1.05132ZM121.771 41.0278C121.66 41.0926 121.55 41.1572 121.436 41.2239C121.317 41.2956 121.198 41.3674 121.081 41.4392C120.958 41.5119 120.834 41.5845 120.712 41.6569C120.456 41.8069 120.203 41.9578 119.949 42.1094C119.577 42.3309 119.202 42.5473 118.826 42.7621C118.768 42.7958 118.709 42.8295 118.648 42.8642C118.475 42.9627 118.304 43.0611 118.131 43.1594C117.077 43.6578 117.077 43.6578 116.274 44.4309C116.262 44.6528 116.257 44.8749 116.255 45.0971C116.254 45.1656 116.253 45.2341 116.252 45.3046C116.25 45.5314 116.248 45.7583 116.247 45.9852C116.246 46.0626 116.246 46.14 116.245 46.2198C116.242 46.6296 116.24 47.0393 116.239 47.4491C116.237 47.8725 116.233 48.2959 116.228 48.7193C116.224 49.0448 116.223 49.3702 116.223 49.6956C116.222 49.8517 116.22 50.0078 116.218 50.1639C116.215 50.3824 116.215 50.6007 116.216 50.8191C116.215 50.9434 116.214 51.0678 116.213 51.1958C116.246 51.5279 116.246 51.5279 116.51 51.7434C116.784 51.9174 117.058 52.0859 117.341 52.2455C117.508 52.3401 117.508 52.3401 117.678 52.4368C117.766 52.4863 117.766 52.4863 117.856 52.5369C118.104 52.6764 118.352 52.8168 118.599 52.9572C118.727 53.03 118.855 53.1028 118.984 53.1755C119.663 53.5607 120.342 53.9504 121.018 54.3409C121.129 54.4043 121.238 54.4677 121.352 54.533C121.454 54.5918 121.556 54.6504 121.66 54.7109C121.75 54.7624 121.839 54.8139 121.932 54.8669C122.11 54.9727 122.285 55.0856 122.458 55.201C122.839 55.1674 123.113 55.033 123.438 54.8387C123.532 54.7836 123.624 54.7287 123.72 54.672C123.871 54.5821 123.871 54.5821 124.023 54.4905C124.238 54.3634 124.452 54.2364 124.667 54.1095C124.778 54.0432 124.89 53.977 125.005 53.9088C125.353 53.7032 125.703 53.5015 126.054 53.3008C126.14 53.2512 126.14 53.2512 126.229 53.2006C126.507 53.0411 126.785 52.8819 127.065 52.7231C128.058 52.1945 128.058 52.1945 128.942 51.5112C128.956 51.2912 128.963 51.0708 128.968 50.8503C128.969 50.7813 128.971 50.7121 128.972 50.6409C128.985 50.0025 128.992 49.364 128.997 48.7256C129 48.2965 129.006 47.8675 129.015 47.4384C129.025 47.0239 129.03 46.6094 129.031 46.1947C129.033 46.0368 129.036 45.879 129.04 45.7211C129.094 44.8607 129.094 44.8607 128.756 44.1096C128.525 43.9526 128.302 43.8404 128.044 43.7328C127.944 43.6724 127.845 43.612 127.742 43.5497C127.653 43.4991 127.564 43.4484 127.474 43.3963C127.32 43.3085 127.32 43.3085 127.164 43.219C127.058 43.1582 126.951 43.0974 126.841 43.0348C126.612 42.9037 126.382 42.7726 126.153 42.6414C126.095 42.6081 126.037 42.5749 125.977 42.5408C125.573 42.3091 125.172 42.0721 124.773 41.8326C124.666 41.7686 124.559 41.7046 124.448 41.6386C124.244 41.5167 124.04 41.3939 123.838 41.2702C123.745 41.2151 123.653 41.1601 123.558 41.1034C123.437 41.0307 123.437 41.0307 123.315 40.9566C122.72 40.6897 122.327 40.6957 121.771 41.0278ZM72.5007 25.992C72.8669 26.1779 73.2245 26.3772 73.5813 26.5804C73.7217 26.6598 73.7217 26.6599 73.8648 26.7408C74.5243 27.1155 75.1803 27.4961 75.8354 27.8785C76.3757 28.1933 76.9173 28.5056 77.459 28.818C77.5655 28.8793 77.6718 28.9407 77.7814 29.0039C78.5746 29.4614 79.3694 29.9161 80.1647 30.3699C81.6042 31.1912 83.0398 32.0193 84.4748 32.8484C84.6888 32.9721 84.903 33.0957 85.117 33.2193C85.3307 33.3427 85.5442 33.4661 85.7576 33.5896C86.2741 33.8881 86.7915 34.1846 87.3119 34.4759C87.5657 34.6181 87.8191 34.7609 88.0725 34.9036C88.1934 34.9714 88.3145 35.0389 88.4357 35.106C90.3233 36.1506 90.3233 36.1506 90.6383 37.151C90.6787 37.4416 90.6792 37.7277 90.677 38.0208C90.6778 38.1486 90.6778 38.1486 90.6786 38.2789C90.68 38.5629 90.6793 38.8468 90.6786 39.1308C90.6792 39.335 90.6799 39.5392 90.6807 39.7433C90.6825 40.2969 90.6824 40.8505 90.6818 41.4041C90.6815 41.8666 90.6821 42.329 90.6827 42.7915C90.6841 43.8825 90.6839 44.9735 90.6828 46.0646C90.6817 47.1897 90.6831 48.3147 90.6857 49.4397C90.688 50.4062 90.6886 51.3727 90.688 52.3393C90.6877 52.9163 90.6879 53.4932 90.6897 54.0702C90.6912 54.6128 90.6908 55.1554 90.6889 55.698C90.6886 55.897 90.6889 56.0959 90.6899 56.2948C90.6912 56.5668 90.6901 56.8387 90.6883 57.1107C90.6893 57.189 90.6902 57.2673 90.6912 57.348C90.6829 57.9708 90.5115 58.4963 90.0828 58.9605C89.6175 59.3942 89.0548 59.6851 88.4999 59.9876C88.2936 60.1021 88.0874 60.2168 87.8812 60.3316C87.7758 60.3901 87.6705 60.4486 87.5619 60.509C87.0645 60.788 86.5728 61.0763 86.081 61.365C85.2094 61.8757 84.3342 62.3797 83.4564 62.8796C82.5892 63.3736 81.7243 63.8712 80.863 64.3754C79.9427 64.9141 79.0181 65.4449 78.0915 65.9726C77.2691 66.4412 76.4495 66.9143 75.6323 67.3921C75.4868 67.4767 75.4868 67.4767 75.3383 67.5632C74.858 67.8427 74.3794 68.1246 73.9032 68.4111C73.719 68.5202 73.5348 68.6292 73.3506 68.7383C73.2691 68.7884 73.1876 68.8384 73.1036 68.89C72.4574 69.2693 71.7955 69.5287 71.0345 69.4278C70.3611 69.2509 69.7826 68.8981 69.1924 68.5389C68.9802 68.4124 68.7679 68.2861 68.5557 68.1598C68.4468 68.0947 68.338 68.0296 68.226 67.9625C67.691 67.6443 67.1511 67.3344 66.6114 67.0243C66.3934 66.8988 66.1755 66.7732 65.9575 66.6476C65.8493 66.5853 65.7411 66.523 65.6295 66.4588C65.088 66.1468 64.5468 65.8345 64.0054 65.5223C63.7893 65.3976 63.5732 65.2729 63.3571 65.1483C62.0603 64.4004 60.7636 63.6524 59.4669 62.9045C59.3598 62.8428 59.2528 62.7811 59.1426 62.7174C58.9269 62.5931 58.7113 62.4686 58.4956 62.3443C57.9482 62.0284 57.4005 61.7128 56.8524 61.3982C56.2101 61.0292 55.569 60.6585 54.9283 60.2868C54.8291 60.2294 54.7298 60.1721 54.6275 60.1131C54.349 59.9518 54.0712 59.7892 53.7937 59.6261C53.7119 59.579 53.63 59.5319 53.5457 59.4833C52.828 59.0577 52.4684 58.6088 52.2351 57.7937C52.1962 57.5043 52.1941 57.2201 52.1964 56.9284C52.1959 56.8449 52.1954 56.7615 52.1948 56.6755C52.1934 56.3978 52.1941 56.1201 52.1948 55.8423C52.1942 55.6424 52.1935 55.4425 52.1927 55.2426C52.1909 54.7009 52.191 54.1593 52.1916 53.6176C52.1919 53.1649 52.1913 52.712 52.1907 52.2593C52.1893 51.1908 52.1895 50.1224 52.1906 49.054C52.1917 47.953 52.1903 46.8521 52.1877 45.751C52.1854 44.8047 52.1848 43.8582 52.1854 42.9117C52.1857 42.347 52.1855 41.7823 52.1837 41.2175C52.1822 40.6863 52.1826 40.1551 52.1845 39.6239C52.1848 39.4294 52.1845 39.2349 52.1835 39.0404C52.1726 36.8468 52.1726 36.8468 52.8858 36.0841C53.3624 35.7436 53.883 35.4631 54.3922 35.1753C54.5662 35.0759 54.7403 34.9765 54.9143 34.877C55.0962 34.7733 55.2782 34.6699 55.4603 34.5666C55.8161 34.3646 56.1714 34.1617 56.5266 33.9587C56.6426 33.8925 56.7585 33.8263 56.8744 33.7599C56.9318 33.7271 56.9891 33.6944 57.0482 33.6606C57.2236 33.5604 57.3991 33.4602 57.5745 33.36C58.7896 32.6667 60.0011 31.9672 61.2125 31.2674C62.599 30.4663 63.9867 29.6673 65.3776 28.8738C66.2474 28.3776 67.1157 27.8789 67.9829 27.3782C68.0905 27.316 68.1982 27.2539 68.3091 27.19C68.8723 26.865 68.8723 26.865 69.4352 26.5396C69.6347 26.4241 69.8343 26.309 70.034 26.1939C70.1367 26.1345 70.2394 26.0752 70.3454 26.0139C71.052 25.6319 71.7777 25.6536 72.5007 25.992ZM21.825 26.1004C21.9007 26.1444 21.9765 26.1884 22.0544 26.2337C22.2196 26.3299 22.3844 26.4269 22.5488 26.5247C22.8183 26.685 23.0891 26.8432 23.3603 27.0007C23.7599 27.2331 24.1591 27.4663 24.558 27.7C25.2361 28.0961 25.918 28.4854 26.6005 28.874C27.5656 29.4237 28.527 29.9794 29.4854 30.5405C30.2499 30.9874 31.0181 31.4274 31.7874 31.8657C32.7558 32.4175 33.7213 32.9739 34.6828 33.5375C35.212 33.8473 35.7426 34.1545 36.2753 34.4581C36.3931 34.5254 36.5109 34.5927 36.6287 34.6601C36.8526 34.7879 37.0766 34.9152 37.3009 35.0421C37.7487 35.2981 38.1944 35.557 38.6202 35.8484C38.6789 35.8883 38.7375 35.9283 38.7979 35.9695C39.3877 36.6034 39.4259 37.2627 39.4183 38.0853C39.4189 38.1976 39.4194 38.3099 39.42 38.4256C39.4214 38.8011 39.4199 39.1763 39.4184 39.5517C39.4185 39.8211 39.4193 40.0907 39.42 40.3601C39.4214 41.0154 39.4206 41.6708 39.4191 42.3261C39.4175 43.0894 39.4178 43.8526 39.4181 44.6159C39.4187 45.9776 39.4173 47.3394 39.4149 48.7012C39.4125 50.0224 39.4118 51.3436 39.4128 52.665C39.4139 54.1043 39.4141 55.5437 39.4127 56.9831C39.4125 57.1366 39.4124 57.2899 39.4122 57.4434C39.4122 57.5189 39.4121 57.5944 39.412 57.6722C39.4115 58.2042 39.4117 58.7363 39.4121 59.2683C39.4126 59.9164 39.412 60.5646 39.4101 61.2127C39.4091 61.5434 39.4087 61.8741 39.4093 62.2048C39.4099 62.5632 39.4087 62.9214 39.407 63.2798C39.4079 63.4368 39.4079 63.4368 39.4088 63.597C39.4011 64.4873 39.4011 64.4874 39.0691 64.8741C38.6671 65.142 38.336 65.1527 37.8721 65.0735C37.4648 64.9077 37.0956 64.6884 36.7188 64.4627C36.6098 64.3996 36.5009 64.3365 36.3886 64.2714C36.0509 64.0752 35.7146 63.8763 35.3784 63.6774C35.1795 63.5614 34.9806 63.4455 34.7815 63.33C34.3886 63.1016 33.9964 62.8725 33.6044 62.6428C33.0012 62.2902 32.3953 61.9424 31.7884 61.5962C31.6136 61.4964 31.4387 61.3963 31.264 61.2962C30.7143 60.9818 30.1637 60.6693 29.6097 60.3627C29.3536 60.2207 29.098 60.0777 28.8425 59.9346C28.7211 59.8671 28.5995 59.8 28.4775 59.7334C27.5846 59.2459 26.9155 58.8269 26.5614 57.8385C26.4366 57.3362 26.4607 56.8225 26.464 56.3081C26.4634 56.1127 26.4629 55.9174 26.4623 55.7222C26.4619 55.5136 26.4623 55.305 26.4629 55.0965C26.4641 54.6605 26.4628 54.2246 26.4612 53.7887C26.4576 52.7062 26.457 51.6237 26.4572 50.5412C26.4574 49.6991 26.4567 48.8569 26.4532 48.0149C26.4516 47.5821 26.4517 47.1493 26.4533 46.7165C26.454 46.3834 26.4522 46.0502 26.4507 45.7171C26.4517 45.5981 26.4527 45.4791 26.4537 45.3566C26.4477 44.6689 26.3744 44.2169 26.002 43.633C25.7589 43.4041 25.7589 43.4041 25.4534 43.2342C25.3672 43.1818 25.3672 43.1818 25.2792 43.1284C25.0562 42.9947 24.831 42.8652 24.6055 42.7355C24.4414 42.64 24.2775 42.5444 24.1134 42.4488C23.8083 42.2714 23.5025 42.095 23.1966 41.919C23.1373 41.885 23.0781 41.8509 23.017 41.8158C22.6176 41.5866 22.216 41.3622 21.8126 41.14C21.7053 41.0799 21.5981 41.02 21.4877 40.9582C20.9001 40.6435 20.4859 40.4383 19.8176 40.5416C19.5638 40.6345 19.3538 40.726 19.1194 40.8533C19.0532 40.8877 18.9871 40.9222 18.919 40.9577C17.9608 41.4654 17.0281 42.0217 16.0966 42.5762C15.8654 42.7132 15.6332 42.848 15.4002 42.9818C15.2849 43.0492 15.1698 43.1167 15.0546 43.1843C14.9135 43.2661 14.9135 43.2661 14.7694 43.3494C14.393 43.6397 14.1815 43.9831 14.0322 44.4308C14.0226 44.6059 14.0189 44.7814 14.0184 44.9567C14.0179 45.0658 14.0173 45.1748 14.0167 45.2872C14.0166 45.4068 14.0165 45.5265 14.0164 45.6497C14.0156 45.8432 14.0149 46.0367 14.0141 46.2301C14.0133 46.4382 14.0128 46.6463 14.0123 46.8544C14.0112 47.2886 14.0092 47.7229 14.007 48.1571C14.0009 49.3921 13.9955 50.6269 13.9922 51.8619C13.9903 52.5438 13.9874 53.2257 13.9834 53.9077C13.9813 54.2683 13.9797 54.6289 13.9795 54.9894C13.9792 55.3924 13.9767 55.7953 13.974 56.1982C13.9744 56.3759 13.9744 56.3759 13.9749 56.5572C13.9665 57.3888 13.8913 58.2099 13.2997 58.8495C12.9301 59.1645 12.5032 59.3902 12.0809 59.6261C11.976 59.686 11.8711 59.7458 11.763 59.8075C11.4806 59.9685 11.1976 60.1286 10.9144 60.2882C10.5687 60.4837 10.2243 60.6813 9.87971 60.8787C9.52798 61.08 9.17607 61.2811 8.82397 61.4817C8.20499 61.8345 7.5871 62.1891 6.97021 62.5455C6.75837 62.6679 6.54639 62.79 6.33426 62.9117C5.81843 63.2081 5.30422 63.5067 4.79372 63.8121C4.54154 63.9626 4.28849 64.1116 4.03531 64.2605C3.91442 64.332 3.79395 64.4043 3.67392 64.4773C2.98284 64.8972 2.48182 65.1914 1.66334 65.0735C1.37703 64.8946 1.21533 64.776 1.06484 64.4752C1.0551 64.3242 1.0516 64.1727 1.05118 64.0214C1.05067 63.9253 1.05016 63.8292 1.04964 63.7302C1.04959 63.6238 1.04954 63.5174 1.04949 63.4078C1.04906 63.2955 1.04862 63.1831 1.04817 63.0673C1.04683 62.6879 1.04621 62.3087 1.04561 61.9295C1.04487 61.6586 1.04399 61.3877 1.04313 61.1168C1.04069 60.302 1.03923 59.4871 1.03794 58.6722C1.03757 58.442 1.03717 58.212 1.03677 57.9818C1.03425 56.553 1.03205 55.1241 1.03081 53.6952C1.03052 53.3641 1.03022 53.0331 1.02992 52.702C1.02985 52.6197 1.02977 52.5374 1.0297 52.4527C1.02843 51.12 1.02512 49.7873 1.02096 48.4546C1.01673 47.0865 1.01438 45.7185 1.01386 44.3504C1.01352 43.5822 1.01235 42.814 1.00906 42.0459C1.00627 41.3916 1.00517 40.7372 1.00629 40.0829C1.00681 39.7491 1.00625 39.4155 1.00405 39.0817C1.00179 38.7195 1.00261 38.3574 1.0042 37.9952C1.00212 37.8376 1.00212 37.8376 1 37.6769C1.0072 37.0101 1.13243 36.5706 1.56359 36.0541C1.78973 35.8465 1.78973 35.8465 2.02102 35.6961C2.10805 35.6393 2.19507 35.5825 2.28472 35.524C2.75671 35.2372 3.23596 34.9663 3.72065 34.7015C4.56393 34.2353 5.40205 33.7621 6.23307 33.2743C7.10047 32.7656 7.97145 32.2636 8.84524 31.766C9.81494 31.2135 10.7813 30.6557 11.7446 30.0923C12.7929 29.4794 13.845 28.8734 14.8974 28.2674C15.3496 28.0068 15.8014 27.7456 16.2533 27.4844C16.6809 27.2375 17.1088 26.9913 17.5369 26.7451C17.7982 26.5946 18.0586 26.4427 18.3191 26.2906C18.4611 26.2084 18.6032 26.1265 18.7453 26.0444C18.8064 26.0082 18.8676 25.9719 18.9306 25.9346C19.906 25.3763 20.9004 25.5387 21.825 26.1004ZM174.754 26.0969C175.117 26.281 175.471 26.4783 175.824 26.6802C175.912 26.7305 176 26.7807 176.091 26.8325C176.699 27.181 177.303 27.5359 177.907 27.8926C178.404 28.1863 178.903 28.4772 179.403 28.7682C179.501 28.8255 179.598 28.8827 179.7 28.9417C180.544 29.4339 181.39 29.9218 182.237 30.4093C183.059 30.8829 183.879 31.3603 184.698 31.8389C185.429 32.2659 186.162 32.6897 186.896 33.1124C189.305 34.501 189.305 34.501 190.32 35.0993C190.492 35.2008 190.664 35.3019 190.837 35.4026C191.06 35.533 191.282 35.6655 191.503 35.7987C191.566 35.835 191.629 35.8714 191.693 35.9088C192.23 36.2374 192.583 36.6564 192.781 37.2509C192.792 37.4377 192.797 37.625 192.799 37.8123C192.8 37.9275 192.801 38.0427 192.803 38.1613C192.804 38.3483 192.804 38.3483 192.805 38.5391C192.806 38.6673 192.806 38.7957 192.807 38.9278C192.809 39.1997 192.81 39.4715 192.811 39.7433C192.812 40.09 192.815 40.4365 192.819 40.7831C192.822 41.1154 192.823 41.4477 192.824 41.7801C192.825 41.9037 192.827 42.0274 192.829 42.1547C192.827 42.9225 192.772 43.505 192.234 44.0953C191.757 44.5548 191.149 44.8582 190.575 45.1778C190.325 45.3164 190.077 45.4568 189.829 45.597C189.701 45.6689 189.574 45.7408 189.447 45.8125C188.85 46.148 188.26 46.4912 187.669 46.8368C187.572 46.8936 187.475 46.9504 187.375 47.009C187.179 47.1231 186.984 47.2372 186.789 47.3515C185.418 48.1539 184.045 48.9534 182.67 49.7474C182.556 49.8125 182.443 49.8776 182.327 49.9447C182.172 50.0347 182.172 50.0347 182.012 50.1264C181.92 50.1797 181.828 50.2329 181.732 50.2879C181.33 50.5164 181.083 50.546 180.612 50.514C180.259 50.3494 180.132 50.2432 179.914 49.9157C179.888 49.6756 179.888 49.6756 179.885 49.3878C179.884 49.2799 179.883 49.1721 179.881 49.0609C179.88 48.8861 179.88 48.8861 179.88 48.7078C179.878 48.5878 179.877 48.4679 179.875 48.3444C179.871 47.9602 179.867 47.5762 179.864 47.1921C179.86 46.6876 179.855 46.1831 179.848 45.6787C179.848 45.5047 179.848 45.5047 179.847 45.3272C179.855 44.5533 179.855 44.5533 179.614 43.8326C179.387 43.7058 179.387 43.7058 179.116 43.6331C178.922 43.5297 178.731 43.4229 178.54 43.3137C178.428 43.2494 178.316 43.1852 178.2 43.119C178.141 43.0849 178.082 43.0509 178.021 43.0158C177.836 42.909 177.65 42.8028 177.464 42.6966C176.849 42.3447 176.237 41.988 175.63 41.6215C175.524 41.5572 175.416 41.4928 175.305 41.4265C175.103 41.3046 174.9 41.1815 174.7 41.057C174.013 40.6355 174.013 40.6355 173.23 40.6415C172.833 40.8182 172.463 41.0319 172.089 41.2523C171.982 41.3147 171.873 41.3771 171.761 41.4413C171.534 41.5726 171.306 41.7045 171.08 41.837C170.745 42.0329 170.409 42.2267 170.072 42.4201C168.532 43.1423 168.532 43.1423 167.345 44.2315C167.333 44.4467 167.328 44.6623 167.326 44.8779C167.324 44.9774 167.324 44.9774 167.323 45.0789C167.321 45.2988 167.319 45.5187 167.318 45.7386C167.317 45.8513 167.317 45.8513 167.316 45.9663C167.313 46.3638 167.311 46.7614 167.31 47.159C167.308 47.5694 167.304 47.9799 167.299 48.3903C167.295 48.7061 167.294 49.0218 167.294 49.3376C167.293 49.4889 167.291 49.6402 167.289 49.7914C167.286 50.0035 167.286 50.2153 167.287 50.4273C167.285 50.6081 167.285 50.6081 167.284 50.7926C167.363 51.2048 167.526 51.347 167.844 51.611C168.119 51.7967 168.119 51.7967 168.42 51.9596C168.588 52.0545 168.588 52.0545 168.759 52.1512C168.88 52.2183 169.001 52.2855 169.122 52.3527C169.312 52.4592 169.502 52.5661 169.691 52.6731C169.82 52.7455 169.949 52.8179 170.077 52.8902C170.673 53.2255 171.263 53.5705 171.853 53.9171C172.656 54.388 173.464 54.8479 174.278 55.3007C175.191 55.8091 176.097 56.3292 176.999 56.8578C177.76 57.3035 178.524 57.7433 179.29 58.1803C179.348 58.2133 179.406 58.2463 179.466 58.2803C180.004 58.5879 180.544 58.8951 181.084 59.2021C183.538 60.599 183.538 60.599 184.402 61.1096C184.566 61.2061 184.566 61.2061 184.732 61.3044C185.131 61.5706 185.363 61.7512 185.494 62.219C185.5 62.6507 185.452 62.8281 185.2 63.1789C184.575 63.646 183.844 63.9936 183.161 64.3694C182.92 64.5031 182.678 64.637 182.436 64.771C182.374 64.8047 182.314 64.8385 182.251 64.8733C181.653 65.2038 181.058 65.5373 180.462 65.8714C179.368 66.4844 178.274 67.0958 177.176 67.7022C176.748 67.9393 176.322 68.1793 175.896 68.4221C175.701 68.5317 175.507 68.6413 175.313 68.7509C175.226 68.8014 175.14 68.8518 175.05 68.9039C174.337 69.3025 173.749 69.4668 172.944 69.2577C172.362 69.0592 171.852 68.7522 171.329 68.4331C171.118 68.3067 170.905 68.1807 170.694 68.0548C170.586 67.9903 170.477 67.9259 170.367 67.8595C169.84 67.5495 169.306 67.2526 168.773 66.9559C167.756 66.3896 166.745 65.8158 165.735 65.2372C165.249 64.9583 164.762 64.6803 164.275 64.4023C163.977 64.2319 163.678 64.0614 163.38 63.891C163.26 63.822 163.138 63.753 163.017 63.6839C162.305 63.2768 162.305 63.2768 162.13 63.1771C162.014 63.1108 161.898 63.0445 161.782 62.9781C161.493 62.8128 161.204 62.6476 160.914 62.4822C160.319 62.142 159.723 61.802 159.127 61.4625C158.543 61.1301 157.961 60.7968 157.378 60.4628C157.183 60.3511 156.988 60.2396 156.793 60.1285C156.554 59.993 156.317 59.8565 156.08 59.7197C156.014 59.6825 155.948 59.6452 155.88 59.6068C155.275 59.2549 154.756 58.8067 154.521 58.129C154.457 57.7787 154.464 57.4296 154.464 57.0748C154.464 56.9916 154.463 56.9083 154.463 56.8225C154.462 56.5431 154.462 56.2637 154.462 55.9843C154.461 55.7841 154.461 55.584 154.46 55.3838C154.459 54.8396 154.458 54.2954 154.458 53.7513C154.458 53.4113 154.457 53.0713 154.457 52.7314C154.455 51.6676 154.455 50.6039 154.454 49.5401C154.454 48.3123 154.452 47.0844 154.449 45.8565C154.447 44.9073 154.446 43.9582 154.446 43.0091C154.446 42.4422 154.445 41.8753 154.443 41.3085C154.442 40.7751 154.441 40.2418 154.442 39.7084C154.442 39.5129 154.442 39.3173 154.441 39.1219C154.44 38.8544 154.44 38.5871 154.441 38.3197C154.44 38.2427 154.44 38.1657 154.439 38.0865C154.444 37.4695 154.564 36.9174 154.96 36.4242C155.556 35.9188 156.183 35.5368 156.872 35.1691C157.095 35.0469 157.318 34.9244 157.542 34.8018C157.65 34.7429 157.758 34.6841 157.869 34.6235C158.254 34.4115 158.633 34.191 159.01 33.9663C159.705 33.5537 160.405 33.1482 161.105 32.7447C161.215 32.681 161.325 32.6173 161.439 32.5518C161.666 32.4214 161.892 32.2909 162.119 32.1606C162.664 31.8466 163.21 31.532 163.754 31.2176C163.971 31.093 164.186 30.9683 164.403 30.8437C164.509 30.7819 164.617 30.7203 164.727 30.6567C165.916 29.9711 167.104 29.2855 168.293 28.5999C168.4 28.5381 168.507 28.4762 168.618 28.4126C168.831 28.289 169.046 28.1655 169.26 28.042C169.768 27.7492 170.276 27.4561 170.783 27.1617C171.023 27.0222 171.263 26.8828 171.505 26.7436C171.674 26.6448 171.845 26.5458 172.014 26.4467C172.117 26.3872 172.22 26.3278 172.326 26.2666C172.416 26.2139 172.507 26.1613 172.601 26.107C173.306 25.7252 174.034 25.76 174.754 26.0969ZM224.9 25.3463C224.991 25.3455 225.081 25.3448 225.174 25.344C226.065 25.4531 226.79 25.8128 227.555 26.2625C227.655 26.3196 227.754 26.3767 227.857 26.4356C228.168 26.6157 228.479 26.7973 228.79 26.9793C228.985 27.0926 229.179 27.2057 229.374 27.3189C229.667 27.4898 229.96 27.661 230.253 27.8325C231.026 28.2847 231.803 28.73 232.581 29.1732C233.55 29.7256 234.517 30.2835 235.48 30.8468C236.204 31.27 236.929 31.6902 237.655 32.1088C237.763 32.1705 237.869 32.2321 237.979 32.2956C238.537 32.6168 239.094 32.9377 239.652 33.2583C241.608 34.3834 241.608 34.3834 242.437 34.8761C242.547 34.9413 242.656 35.0065 242.769 35.0736C243.261 35.3886 243.606 35.684 243.921 36.1787C243.979 36.2677 244.037 36.3566 244.097 36.4483C244.417 37.0781 244.481 37.6945 244.478 38.3881C244.478 38.4686 244.479 38.5491 244.479 38.6321C244.48 38.9 244.48 39.1678 244.48 39.4356C244.481 39.6284 244.481 39.8214 244.482 40.0143C244.484 40.5367 244.484 41.0593 244.484 41.5818C244.485 41.9086 244.485 42.2354 244.486 42.5623C244.487 43.7034 244.488 44.8447 244.488 45.9859C244.488 47.048 244.49 48.1101 244.493 49.1722C244.496 50.0856 244.497 50.9989 244.497 51.9122C244.497 52.4571 244.497 53.0019 244.499 53.5468C244.501 54.0594 244.501 54.5721 244.5 55.0847C244.5 55.2722 244.5 55.4598 244.501 55.6473C244.509 56.9877 244.429 58.1679 243.453 59.1898C242.791 59.7819 242.037 60.1976 241.259 60.6171C241.016 60.7493 240.775 60.8821 240.533 61.0149C240.474 61.0471 240.415 61.0794 240.354 61.1126C239.9 61.3612 239.452 61.6178 239.009 61.8824C237.351 62.8671 235.675 63.8198 234 64.7751C232.836 65.4394 231.675 66.1084 230.515 66.779C230.171 66.9773 229.827 67.1754 229.484 67.3733C229.366 67.4408 229.249 67.5082 229.131 67.5758C228.912 67.7025 228.692 67.8292 228.471 67.9558C227.913 68.2769 227.36 68.6025 226.811 68.9382C225.94 69.4411 224.985 69.5695 224.002 69.3569C222.709 68.9457 221.513 68.0556 220.361 67.3586C219.641 66.9235 218.916 66.4975 218.19 66.0743C218.104 66.0242 218.018 65.974 217.931 65.9223C217.856 65.8786 217.78 65.8348 217.703 65.7897C217.519 65.6718 217.519 65.6718 217.319 65.4724C217.331 65.273 217.331 65.2729 217.419 65.0735C217.593 64.9613 217.593 64.9613 217.819 64.8741C217.901 64.8411 217.983 64.8082 218.067 64.7743C218.154 64.7414 218.24 64.7085 218.329 64.6746C218.498 64.6086 218.667 64.5421 218.835 64.4752C218.917 64.4428 218.999 64.4103 219.083 64.377C219.298 64.2828 219.489 64.1757 219.687 64.0513C220.055 63.854 220.201 63.8319 220.611 63.8768C220.866 63.9987 221.094 64.1216 221.332 64.2702C221.4 64.3109 221.468 64.3515 221.538 64.3934C221.753 64.5233 221.967 64.655 222.182 64.7868C222.325 64.8732 222.467 64.9593 222.61 65.0455C222.75 65.1298 222.889 65.2142 223.028 65.2987C223.13 65.3601 223.13 65.3601 223.234 65.4228C223.529 65.6014 223.819 65.7822 224.105 65.9736C224.191 66.0301 224.277 66.0866 224.365 66.1447C224.472 66.2182 224.472 66.2182 224.581 66.2931C224.908 66.4074 225.087 66.3055 225.399 66.1705C225.579 66.0774 225.758 65.9791 225.933 65.8764C226.035 65.8172 226.137 65.7581 226.242 65.6972C226.404 65.6013 226.404 65.6013 226.571 65.5035C226.687 65.4362 226.802 65.3688 226.918 65.3016C227.157 65.162 227.397 65.0221 227.637 64.882C228.182 64.5635 228.729 64.2483 229.276 63.9329C229.383 63.8716 229.489 63.8104 229.598 63.7473C230.455 63.2533 231.313 62.7632 232.172 62.2736C232.976 61.8151 233.777 61.3525 234.576 60.8851C235.434 60.3833 236.293 59.8876 237.156 59.3955C237.273 59.3291 237.39 59.2625 237.506 59.196C237.564 59.1631 237.622 59.1301 237.681 59.0962C238.767 58.4769 238.767 58.4769 239.851 57.8557C240.021 57.7582 240.192 57.6611 240.361 57.5639C240.464 57.5053 240.566 57.4467 240.67 57.3862C240.805 57.3091 240.805 57.3091 240.943 57.2303C241.169 57.1008 241.169 57.1008 241.359 56.8962C241.378 56.6423 241.385 56.3993 241.383 56.1453C241.383 56.067 241.383 55.9886 241.384 55.9078C241.384 55.6439 241.383 55.3799 241.382 55.116C241.382 54.9273 241.382 54.7386 241.382 54.5499C241.382 54.0365 241.381 53.5231 241.379 53.0097C241.378 52.4736 241.378 51.9375 241.378 51.4014C241.377 50.3857 241.375 49.3699 241.373 48.3541C241.371 47.198 241.37 46.0418 241.369 44.8857C241.367 42.507 241.363 40.1282 241.359 37.7494C241.244 37.7045 241.244 37.7045 241.126 37.6587C240.832 37.5384 240.567 37.3925 240.291 37.234C240.125 37.1386 240.125 37.1386 239.955 37.0411C239.834 36.9718 239.715 36.9025 239.594 36.8331C239.469 36.7611 239.344 36.6891 239.218 36.6172C238.896 36.4323 238.575 36.2469 238.252 36.0616C237.967 35.8971 237.682 35.733 237.398 35.5687C236.863 35.2608 236.328 34.9524 235.795 34.6439C235.255 34.3326 234.716 34.0216 234.177 33.7106C233.96 33.5859 233.745 33.4613 233.528 33.3366C233.422 33.2749 233.314 33.2132 233.204 33.1496C229.638 31.0928 229.638 31.0928 229.314 30.9055C229.1 30.7819 228.885 30.6585 228.67 30.5354C228.163 30.2441 227.657 29.9507 227.155 29.6496C226.919 29.5073 226.681 29.3664 226.443 29.2256C226.276 29.1256 226.109 29.0239 225.942 28.9221C225.79 28.8319 225.79 28.8319 225.634 28.74C225.545 28.6863 225.456 28.6327 225.365 28.5773C225.028 28.4472 224.846 28.4783 224.501 28.5748C224.251 28.6874 224.251 28.6874 224.01 28.8374C223.918 28.8924 223.825 28.9473 223.729 29.0038C223.63 29.0639 223.531 29.1238 223.429 29.1856C223.213 29.3139 222.997 29.442 222.781 29.5701C222.67 29.6365 222.559 29.7029 222.444 29.7713C221.907 30.09 221.365 30.4013 220.822 30.7127C220.605 30.8382 220.387 30.9638 220.169 31.0894C220.061 31.1517 219.953 31.214 219.841 31.2782C219.299 31.5902 218.759 31.9025 218.217 32.2147C218 32.3394 217.785 32.464 217.569 32.5887C217.462 32.6504 217.354 32.7121 217.244 32.7757C213.678 34.8325 213.678 34.8325 213.354 35.0196C213.139 35.1435 212.924 35.2674 212.71 35.3912C212.207 35.6818 211.703 35.9719 211.199 36.2604C211.02 36.3624 210.842 36.4646 210.663 36.5669C210.44 36.6951 210.215 36.823 209.992 36.9506C209.89 37.0088 209.788 37.067 209.684 37.1269C209.596 37.1775 209.507 37.2279 209.416 37.28C209.325 37.3362 209.234 37.3924 209.14 37.4502C209.052 37.4988 209.052 37.4988 208.963 37.5483C208.767 37.6686 208.604 37.7849 208.442 37.9488C208.371 38.2457 208.35 38.4357 208.358 38.7318C208.357 38.8101 208.357 38.8883 208.356 38.9689C208.355 39.2307 208.359 39.4921 208.363 39.7539C208.363 39.9416 208.363 40.1294 208.362 40.317C208.362 40.8266 208.366 41.336 208.371 41.8455C208.375 42.378 208.376 42.9105 208.377 43.4431C208.379 44.4514 208.385 45.4597 208.392 46.468C208.399 47.6159 208.403 48.7639 208.407 49.9118C208.414 52.2732 208.426 54.6346 208.442 56.9959C208.517 57.0254 208.594 57.055 208.672 57.0854C208.989 57.2155 209.27 57.3795 209.566 57.5542C209.625 57.5891 209.684 57.6241 209.745 57.6601C209.871 57.7346 209.998 57.8092 210.123 57.8839C210.45 58.0773 210.777 58.2692 211.104 58.4614C211.231 58.5363 211.358 58.611 211.485 58.6858C211.545 58.7209 211.605 58.7559 211.665 58.792C211.814 58.8796 211.963 58.9673 212.111 59.0549C212.328 59.182 212.544 59.3077 212.762 59.433C212.874 59.4986 212.987 59.5643 213.104 59.632C213.851 59.9909 214.645 60.1325 215.443 59.8692C216.049 59.6149 216.372 59.1898 216.621 58.5915C216.73 58.1694 216.735 57.7557 216.735 57.3225C216.735 57.2072 216.735 57.2072 216.736 57.0897C216.736 56.8326 216.737 56.5755 216.737 56.3184C216.737 56.134 216.738 55.9495 216.738 55.765C216.739 55.3681 216.74 54.9712 216.741 54.5743C216.742 53.947 216.744 53.3198 216.746 52.6927C216.752 50.9093 216.758 49.126 216.761 47.3425C216.763 46.3575 216.766 45.3723 216.77 44.3872C216.772 43.8658 216.774 43.3443 216.774 42.8228C216.774 42.3329 216.776 41.8431 216.778 41.3532C216.779 41.173 216.779 40.9929 216.779 40.8127C216.778 40.5675 216.78 40.3224 216.782 40.0773C216.781 40.0053 216.781 39.9333 216.78 39.859C216.783 39.6609 216.783 39.6609 216.82 39.3449C217.156 39.1218 217.27 39.1199 217.662 39.119C217.768 39.1188 217.874 39.1185 217.983 39.1183C218.092 39.119 218.203 39.1198 218.317 39.1206C218.427 39.1198 218.537 39.1191 218.651 39.1183C218.757 39.1185 218.862 39.1188 218.971 39.119C219.068 39.1193 219.165 39.1195 219.264 39.1197C219.514 39.1455 219.514 39.1455 219.813 39.3449C219.843 39.6098 219.854 39.8515 219.852 40.1167C219.853 40.2377 219.853 40.2377 219.853 40.361C219.855 40.6328 219.854 40.9045 219.853 41.1762C219.854 41.3705 219.855 41.5648 219.855 41.759C219.857 42.2883 219.857 42.8174 219.857 43.3466C219.856 43.7886 219.857 44.2307 219.857 44.6726C219.859 45.7166 219.859 46.7605 219.858 47.8045C219.856 48.8796 219.858 49.9546 219.861 51.0296C219.863 51.9532 219.863 52.8769 219.863 53.8006C219.862 54.3519 219.863 54.9031 219.864 55.4544C219.866 55.974 219.866 56.4935 219.864 57.0132C219.863 57.203 219.864 57.3928 219.865 57.5826C219.873 59.218 219.707 60.6048 218.56 61.8636C218.133 62.2465 217.754 62.5325 217.219 62.7488C217.119 62.7902 217.018 62.8317 216.914 62.8745C215.325 63.4426 213.393 63.1716 211.9 62.4716C210.23 61.6632 208.622 60.7009 207.049 59.7204C206.918 59.6391 206.918 59.6391 206.785 59.556C206.061 59.0498 205.61 58.3327 205.395 57.4807C205.337 57.1204 205.334 56.7661 205.334 56.4021C205.334 56.3228 205.334 56.2434 205.333 56.1617C205.332 55.8962 205.332 55.6306 205.331 55.3651C205.331 55.1746 205.33 54.984 205.329 54.7935C205.327 54.1679 205.326 53.5422 205.325 52.9167C205.325 52.701 205.324 52.4852 205.324 52.2695C205.322 51.2556 205.321 50.2418 205.32 49.2279C205.319 48.0594 205.316 46.891 205.312 45.7225C205.309 44.8183 205.308 43.914 205.307 43.0098C205.307 42.4703 205.306 41.9308 205.304 41.3913C205.301 40.8831 205.301 40.375 205.302 39.8669C205.302 39.6812 205.301 39.4955 205.3 39.3098C205.291 38.0478 205.31 36.8526 206.141 35.8235C206.615 35.348 207.135 35.0124 207.718 34.6848C207.985 34.5349 208.248 34.3818 208.511 34.2286C209.012 33.9382 209.514 33.6493 210.016 33.3612C210.626 33.0109 211.236 32.6597 211.845 32.3083C211.953 32.2462 212.06 32.1843 212.171 32.1204C212.887 31.7075 213.601 31.2918 214.314 30.8747C215.238 30.3341 216.168 29.8012 217.099 29.271C217.911 28.8084 218.72 28.342 219.526 27.8706C219.621 27.8147 219.717 27.759 219.816 27.7016C220.287 27.4272 220.757 27.1518 221.225 26.874C221.4 26.7701 221.576 26.6668 221.752 26.5636C221.973 26.4333 222.195 26.302 222.416 26.17C223.2 25.7111 223.972 25.3384 224.9 25.3463ZM235.679 40.4232C236.741 41.4689 237.23 42.8699 237.394 44.3296C237.359 44.6105 237.266 44.7271 237.069 44.9295C236.802 44.9796 236.802 44.9796 236.483 44.979C236.369 44.9791 236.254 44.9791 236.136 44.9792C236.016 44.9772 235.896 44.9752 235.773 44.9731C235.593 44.9742 235.593 44.9742 235.41 44.9753C234.528 44.9689 234.528 44.9689 234.296 44.7941C234.127 44.562 234.064 44.3256 233.983 44.0507C233.734 43.2724 233.38 42.68 232.68 42.237C230.888 41.4698 228.455 41.4453 226.603 42.0106C226.082 42.2261 225.64 42.4544 225.381 42.9694C225.292 43.257 225.276 43.4887 225.28 43.7889C225.281 43.928 225.281 43.928 225.282 44.0698C225.298 44.4105 225.298 44.4105 225.399 44.7301C226.426 45.1957 227.525 45.4072 228.635 45.5715C228.768 45.5923 228.903 45.6132 229.038 45.6342C229.315 45.6776 229.592 45.7205 229.871 45.7631C235.827 46.6767 235.827 46.6767 237.269 48.3201C238.04 49.4895 238.156 50.9316 237.895 52.2833C237.485 53.6935 236.738 54.7456 235.437 55.4667C232.434 56.9879 228.402 57.0466 225.23 56.0175C223.826 55.5269 222.498 54.6712 221.808 53.3063C221.507 52.5483 221.296 51.8183 221.284 51.0002C221.281 50.8971 221.279 50.794 221.276 50.6877C221.309 50.4143 221.309 50.4143 221.424 50.2499C221.685 50.0589 221.877 50.078 222.198 50.0789C222.37 50.079 222.37 50.079 222.547 50.0791C222.667 50.0807 222.787 50.0823 222.911 50.0839C223.093 50.0835 223.093 50.0835 223.277 50.083C224.175 50.0885 224.175 50.0885 224.401 50.3146C224.488 50.6202 224.563 50.926 224.633 51.2358C224.821 52.0057 225.234 52.5825 225.898 53.0071C227.967 53.9478 231.056 53.96 233.186 53.1964C233.848 52.8975 234.244 52.5567 234.507 51.8665C234.602 51.3743 234.625 50.9869 234.488 50.5016C233.824 49.6023 232.404 49.4277 231.36 49.2679C230.599 49.1607 229.837 49.0649 229.075 48.9679C223.901 48.3016 223.901 48.3016 222.647 46.7249C221.886 45.6532 221.702 44.4463 221.852 43.1552C222.124 41.7364 222.716 40.7619 223.896 39.9387C227.057 37.9262 232.746 37.9987 235.679 40.4232ZM174.028 43.4336C174.323 43.5743 174.323 43.5743 174.629 43.753C174.741 43.818 174.853 43.8829 174.968 43.9498C175.025 43.9838 175.083 44.0178 175.143 44.0529C175.317 44.1558 175.492 44.2574 175.668 44.3588C177.246 45.2804 177.246 45.2804 177.419 45.6275C177.433 45.921 177.44 46.212 177.443 46.5056C177.444 46.5929 177.444 46.6802 177.445 46.7702C177.447 46.9551 177.448 47.14 177.449 47.3249C177.45 47.6077 177.455 47.8905 177.459 48.1732C177.46 48.3528 177.461 48.5324 177.462 48.712C177.463 48.7965 177.465 48.8811 177.467 48.9683C177.465 49.5522 177.465 49.5522 177.252 49.8518C176.994 50.0334 176.737 50.1938 176.461 50.3457C176.352 50.4056 176.244 50.4655 176.132 50.5272C176.021 50.5887 175.908 50.6501 175.792 50.7134C175.57 50.836 175.348 50.9585 175.126 51.0812C175.021 51.1381 174.917 51.1951 174.809 51.2537C174.578 51.3825 174.358 51.5186 174.136 51.6608C173.761 51.8429 173.628 51.8089 173.23 51.7107C172.956 51.5807 172.956 51.5807 172.679 51.4166C172.527 51.3266 172.527 51.3266 172.37 51.2349C172.265 51.1717 172.159 51.1087 172.052 51.0438C171.895 50.9521 171.895 50.9521 171.737 50.8585C171.531 50.7368 171.327 50.6122 171.124 50.4849C170.846 50.3099 170.846 50.3099 170.565 50.2104C170.262 50.0779 170.128 49.9898 169.938 49.7162C169.779 49.1188 169.792 48.4964 169.799 47.8828C169.8 47.5856 169.791 47.2903 169.78 46.9933C169.761 45.6253 169.761 45.6253 170.196 45.1404C170.534 44.9323 170.869 44.781 171.235 44.6303C171.432 44.5124 171.628 44.3909 171.82 44.2653C172.006 44.1521 172.19 44.0391 172.376 43.9261C172.47 43.8669 172.563 43.8079 172.66 43.7471C172.797 43.6642 172.797 43.6642 172.937 43.5797C173.017 43.53 173.097 43.4802 173.181 43.4289C173.51 43.3031 173.69 43.3395 174.028 43.4336ZM252.53 25.8824C252.826 25.8824 253.123 25.8824 253.428 25.8824C253.473 26.013 253.473 26.013 253.518 26.1462C253.627 26.4684 253.738 26.7904 253.849 27.1124C253.897 27.2521 253.943 27.3916 253.991 27.5312C254.06 27.7315 254.129 27.9318 254.197 28.132C254.239 28.2526 254.28 28.3732 254.322 28.4975C254.398 28.7616 254.398 28.7616 254.525 28.8741C254.555 28.787 254.585 28.6998 254.615 28.6102C254.724 28.288 254.835 27.966 254.946 27.644C254.994 27.5044 255.041 27.3648 255.089 27.2252C255.157 27.0249 255.226 26.8246 255.294 26.6244C255.357 26.4435 255.357 26.4435 255.42 26.2589C255.522 25.9821 255.522 25.9821 255.622 25.8824C255.886 25.8824 256.149 25.8824 256.42 25.8824C256.42 27.2316 256.42 28.5809 256.42 29.971C256.223 29.971 256.025 29.971 255.822 29.971C255.772 28.7369 255.772 28.7369 255.722 27.4779C255.464 28.2238 255.464 28.2238 255.205 28.9696C255.157 29.1086 255.157 29.1086 255.109 29.2503C255.076 29.3454 255.043 29.4405 255.009 29.5384C254.924 29.7716 254.924 29.7716 254.824 29.971C254.594 29.971 254.363 29.971 254.126 29.971C253.83 29.0825 253.533 28.1939 253.228 27.2785C253.195 28.167 253.162 29.0555 253.128 29.971C252.931 29.971 252.733 29.971 252.53 29.971C252.53 28.6218 252.53 27.2725 252.53 25.8824ZM248.84 25.8824C249.926 25.8824 251.012 25.8824 252.131 25.8824C252.131 26.0798 252.131 26.2773 252.131 26.4807C251.671 26.4807 251.21 26.4807 250.735 26.4807C250.735 27.6325 250.735 28.7843 250.735 29.971C250.538 29.971 250.34 29.971 250.137 29.971C250.137 28.8192 250.137 27.6674 250.137 26.4807C249.709 26.4807 249.281 26.4807 248.84 26.4807C248.84 26.2832 248.84 26.0858 248.84 25.8824ZM12.9614 84.4166C12.0771 84.4166 11.2922 84.5905 10.6066 84.9381C9.93097 85.2759 9.35965 85.7676 8.89266 86.4132C8.43561 87.0589 8.08786 87.8387 7.84939 88.7525C7.61093 89.6664 7.4917 90.6945 7.4917 91.8368C7.4917 93.3765 7.68048 94.6927 8.05805 95.7854C8.44555 96.8681 9.0417 97.6975 9.84651 98.2737C10.6513 98.8399 11.6896 99.123 12.9614 99.123C13.8457 99.123 14.73 99.0236 15.6143 98.825C16.5085 98.6263 17.4773 98.3432 18.5206 97.9757V101.85C17.5568 102.247 16.6079 102.53 15.6739 102.699C14.7399 102.878 13.6917 102.967 12.5292 102.967C10.2837 102.967 8.43561 102.505 6.98497 101.581C5.54426 100.648 4.47615 99.3465 3.78064 97.6777C3.08513 95.9989 2.73737 94.0421 2.73737 91.807C2.73737 90.1581 2.96093 88.6482 3.40804 87.2774C3.85516 85.9066 4.51093 84.7196 5.37535 83.7163C6.23978 82.7131 7.30789 81.9383 8.57968 81.3919C9.85148 80.8456 11.3121 80.5724 12.9614 80.5724C14.0444 80.5724 15.1274 80.7115 16.2105 80.9896C17.3034 81.2578 18.3467 81.6303 19.3403 82.1071L17.8499 85.8619C17.0351 85.4745 16.2154 85.1368 15.3907 84.8487C14.5661 84.5607 13.7563 84.4166 12.9614 84.4166ZM37.3447 94.3103C37.3447 95.7009 37.1559 96.9327 36.7784 98.0055C36.4107 99.0783 35.8692 99.9872 35.1539 100.732C34.4484 101.467 33.5939 102.024 32.5904 102.401C31.5968 102.778 30.474 102.967 29.2221 102.967C28.0497 102.967 26.9716 102.778 25.988 102.401C25.0143 102.024 24.1647 101.467 23.4394 100.732C22.724 99.9872 22.1676 99.0783 21.7702 98.0055C21.3827 96.9327 21.1889 95.7009 21.1889 94.3103C21.1889 92.4627 21.5168 90.8981 22.1726 89.6167C22.8284 88.3353 23.7623 87.3619 24.9745 86.6963C26.1867 86.0308 27.6324 85.698 29.3115 85.698C30.8715 85.698 32.2526 86.0308 33.4548 86.6963C34.667 87.3619 35.6159 88.3353 36.3015 89.6167C36.997 90.8981 37.3447 92.4627 37.3447 94.3103ZM25.824 94.3103C25.824 95.4029 25.9433 96.3218 26.1817 97.0668C26.4202 97.8118 26.7928 98.373 27.2995 98.7505C27.8063 99.1279 28.467 99.3167 29.2817 99.3167C30.0865 99.3167 30.7373 99.1279 31.2341 98.7505C31.7409 98.373 32.1085 97.8118 32.337 97.0668C32.5755 96.3218 32.6947 95.4029 32.6947 94.3103C32.6947 93.2077 32.5755 92.2938 32.337 91.5686C32.1085 90.8336 31.7409 90.2823 31.2341 89.9147C30.7274 89.5472 30.0667 89.3634 29.2519 89.3634C28.0497 89.3634 27.1753 89.7757 26.6288 90.6001C26.0923 91.4246 25.824 92.6613 25.824 94.3103ZM60.0588 85.698C61.9466 85.698 63.3724 86.1848 64.3362 87.1582C65.3099 88.1218 65.7968 89.6714 65.7968 91.807V102.669H61.2362V92.9395C61.2362 91.7474 61.0325 90.8485 60.6251 90.2425C60.2178 89.6366 59.5868 89.3336 58.7324 89.3336C57.5301 89.3336 56.6756 89.7657 56.1689 90.6299C55.6622 91.4842 55.4088 92.711 55.4088 94.3103V102.669H50.8631V92.9395C50.8631 92.1448 50.7737 91.4792 50.5948 90.9428C50.416 90.4064 50.1428 90.0041 49.7751 89.7359C49.4075 89.4677 48.9356 89.3336 48.3593 89.3336C47.5147 89.3336 46.849 89.5472 46.3622 89.9743C45.8852 90.3915 45.5424 91.0124 45.3338 91.8368C45.1351 92.6514 45.0357 93.6497 45.0357 94.8318V102.669H40.49V86.0109H43.9626L44.5737 88.1416H44.8271C45.1649 87.5655 45.5872 87.0986 46.0939 86.741C46.6105 86.3834 47.1769 86.1202 47.7929 85.9513C48.4089 85.7825 49.0349 85.698 49.6708 85.698C50.8929 85.698 51.9263 85.8967 52.7708 86.294C53.6253 86.6914 54.2811 87.3072 54.7381 88.1416H55.1405C55.6373 87.2874 56.3378 86.6665 57.242 86.2791C58.1561 85.8917 59.095 85.698 60.0588 85.698ZM89.4349 85.698C91.3227 85.698 92.7485 86.1848 93.7123 87.1582C94.686 88.1218 95.1729 89.6714 95.1729 91.807V102.669H90.6123V92.9395C90.6123 91.7474 90.4086 90.8485 90.0012 90.2425C89.5939 89.6366 88.9629 89.3336 88.1084 89.3336C86.9062 89.3336 86.0517 89.7657 85.545 90.6299C85.0383 91.4842 84.7849 92.711 84.7849 94.3103V102.669H80.2392V92.9395C80.2392 92.1448 80.1498 91.4792 79.9709 90.9428C79.7921 90.4064 79.5189 90.0041 79.1512 89.7359C78.7836 89.4677 78.3116 89.3336 77.7354 89.3336C76.8908 89.3336 76.2251 89.5472 75.7382 89.9743C75.2613 90.3915 74.9185 91.0124 74.7099 91.8368C74.5112 92.6514 74.4118 93.6497 74.4118 94.8318V102.669H69.8661V86.0109H73.3387L73.9498 88.1416H74.2031C74.541 87.5655 74.9632 87.0986 75.47 86.741C75.9866 86.3834 76.553 86.1202 77.169 85.9513C77.785 85.7825 78.411 85.698 79.0469 85.698C80.269 85.698 81.3024 85.8967 82.1469 86.294C83.0014 86.6914 83.6572 87.3072 84.1142 88.1416H84.5166C85.0134 87.2874 85.7139 86.6665 86.6181 86.2791C87.5322 85.8917 88.4711 85.698 89.4349 85.698ZM114.534 86.0109V102.669H111.046L110.435 100.538H110.197C109.839 101.105 109.392 101.567 108.855 101.924C108.319 102.282 107.727 102.545 107.082 102.714C106.436 102.883 105.765 102.967 105.07 102.967C103.877 102.967 102.839 102.759 101.955 102.341C101.07 101.914 100.38 101.254 99.8831 100.36C99.3962 99.4657 99.1528 98.3035 99.1528 96.8731V86.0109H103.698V95.7407C103.698 96.9327 103.912 97.8316 104.339 98.4376C104.767 99.0435 105.447 99.3465 106.381 99.3465C107.305 99.3465 108.031 99.1379 108.557 98.7207C109.084 98.2935 109.451 97.6727 109.66 96.8582C109.879 96.0337 109.988 95.0304 109.988 93.8484V86.0109H114.534ZM128.156 85.698C129.935 85.698 131.366 86.1848 132.449 87.1582C133.532 88.1218 134.073 89.6714 134.073 91.807V102.669H129.527V92.9395C129.527 91.7474 129.309 90.8485 128.872 90.2425C128.444 89.6366 127.769 89.3336 126.845 89.3336C125.454 89.3336 124.505 89.8055 123.998 90.7491C123.491 91.6928 123.238 93.0537 123.238 94.8318V102.669H118.692V86.0109H122.165L122.776 88.1416H123.029C123.387 87.5655 123.829 87.0986 124.356 86.741C124.892 86.3834 125.484 86.1202 126.129 85.9513C126.785 85.7825 127.461 85.698 128.156 85.698ZM142.688 86.0109V102.669H138.142V86.0109H142.688ZM140.423 79.4847C141.098 79.4847 141.68 79.6437 142.167 79.9615C142.653 80.2695 142.897 80.8506 142.897 81.7048C142.897 82.5492 142.653 83.1352 142.167 83.463C141.68 83.7809 141.098 83.9398 140.423 83.9398C139.737 83.9398 139.151 83.7809 138.664 83.463C138.187 83.1352 137.949 82.5492 137.949 81.7048C137.949 80.8506 138.187 80.2695 138.664 79.9615C139.151 79.6437 139.737 79.4847 140.423 79.4847ZM153.882 99.3465C154.378 99.3465 154.86 99.2968 155.327 99.1975C155.804 99.0981 156.276 98.974 156.743 98.825V102.207C156.256 102.426 155.65 102.605 154.925 102.744C154.209 102.893 153.425 102.967 152.57 102.967C151.576 102.967 150.682 102.808 149.887 102.49C149.102 102.163 148.481 101.601 148.024 100.807C147.577 100.002 147.354 98.8846 147.354 97.4542V89.423H145.178V87.5009L147.682 85.9811L148.993 82.4647H151.899V86.0109H156.564V89.423H151.899V97.4542C151.899 98.0899 152.078 98.5667 152.436 98.8846C152.804 99.1925 153.285 99.3465 153.882 99.3465ZM157.131 86.0109H162.109L165.254 95.3831C165.353 95.6811 165.438 95.984 165.507 96.292C165.577 96.5999 165.636 96.9178 165.686 97.2456C165.736 97.5734 165.775 97.9161 165.805 98.2737H165.895C165.954 97.7373 166.034 97.2356 166.133 96.7688C166.242 96.3019 166.377 95.84 166.536 95.3831L169.621 86.0109H174.494L167.445 104.8C167.017 105.952 166.461 106.911 165.775 107.676C165.09 108.45 164.3 109.031 163.406 109.419C162.521 109.806 161.548 110 160.485 110C159.968 110 159.521 109.97 159.143 109.911C158.766 109.861 158.443 109.806 158.174 109.747V106.141C158.383 106.191 158.646 106.235 158.964 106.275C159.282 106.315 159.615 106.335 159.963 106.335C160.599 106.335 161.145 106.2 161.602 105.932C162.059 105.664 162.442 105.302 162.75 104.845C163.058 104.398 163.301 103.906 163.48 103.369L163.749 102.55L157.131 86.0109ZM202.038 91.5686C202.038 94.0222 201.566 96.0734 200.622 97.7224C199.688 99.3614 198.332 100.598 196.553 101.432C194.775 102.257 192.633 102.669 190.13 102.669H183.959V80.8853H190.8C193.085 80.8853 195.068 81.2926 196.747 82.1071C198.426 82.9117 199.728 84.1087 200.652 85.698C201.576 87.2774 202.038 89.2343 202.038 91.5686ZM197.239 91.6878C197.239 90.0786 197 88.7575 196.523 87.7244C196.056 86.6814 195.361 85.9116 194.437 85.4149C193.523 84.9183 192.39 84.6699 191.039 84.6699H188.58V98.8548H190.562C192.817 98.8548 194.491 98.2538 195.584 97.0519C196.687 95.8499 197.239 94.0619 197.239 91.6878ZM212.411 85.6682C214.647 85.6682 216.361 86.155 217.553 87.1284C218.746 88.1019 219.342 89.582 219.342 91.5686V102.669H216.167L215.288 100.404H215.169C214.692 101 214.205 101.487 213.708 101.865C213.211 102.242 212.64 102.52 211.994 102.699C211.348 102.878 210.563 102.967 209.639 102.967C208.656 102.967 207.771 102.778 206.986 102.401C206.211 102.024 205.6 101.447 205.153 100.673C204.706 99.8878 204.483 98.8945 204.483 97.6926C204.483 95.9244 205.104 94.6232 206.346 93.7888C207.587 92.9444 209.45 92.4776 211.934 92.3882L214.826 92.2988V91.5686C214.826 90.6945 214.597 90.0538 214.14 89.6465C213.683 89.2393 213.047 89.0356 212.233 89.0356C211.428 89.0356 210.638 89.1499 209.863 89.3783C209.088 89.6068 208.313 89.8949 207.538 90.2425L206.033 87.1731C206.917 86.7063 207.905 86.3387 208.998 86.0705C210.101 85.8023 211.239 85.6682 212.411 85.6682ZM214.826 94.951L213.067 95.0106C211.597 95.0503 210.573 95.3135 209.997 95.8003C209.431 96.287 209.147 96.9277 209.147 97.7224C209.147 98.4177 209.351 98.9144 209.758 99.2124C210.166 99.5004 210.697 99.6445 211.353 99.6445C212.327 99.6445 213.147 99.3564 213.812 98.7803C214.488 98.2041 214.826 97.3846 214.826 96.3218V94.951ZM221.041 86.0109H226.019L229.164 95.3831C229.263 95.6811 229.348 95.984 229.417 96.292C229.487 96.5999 229.546 96.9178 229.596 97.2456C229.646 97.5734 229.686 97.9161 229.715 98.2737H229.805C229.864 97.7373 229.944 97.2356 230.043 96.7688C230.153 96.3019 230.287 95.84 230.446 95.3831L233.531 86.0109H238.404L231.355 104.8C230.928 105.952 230.371 106.911 229.686 107.676C229 108.45 228.21 109.031 227.316 109.419C226.432 109.806 225.458 110 224.395 110C223.878 110 223.431 109.97 223.053 109.911C222.676 109.861 222.353 109.806 222.085 109.747V106.141C222.293 106.191 222.557 106.235 222.874 106.275C223.192 106.315 223.525 106.335 223.873 106.335C224.509 106.335 225.055 106.2 225.512 105.932C225.97 105.664 226.352 105.302 226.66 104.845C226.968 104.398 227.212 103.906 227.39 103.369L227.659 102.55L221.041 86.0109ZM336.893 32.643C339.892 32.643 342.081 33.2893 343.458 34.582C344.836 35.864 345.525 37.6335 345.525 39.8903C345.525 40.9075 345.371 41.8823 345.064 42.8147C344.757 43.7365 344.253 44.5577 343.554 45.2782C342.865 45.9987 341.943 46.5709 340.788 46.9947C339.632 47.4079 338.207 47.6145 336.511 47.6145H334.397V55.8791H329.469V32.643H336.893ZM336.638 36.6799H334.397V43.5776H336.018C336.94 43.5776 337.741 43.4558 338.419 43.2121C339.097 42.9684 339.622 42.5869 339.993 42.0677C340.364 41.5486 340.549 40.881 340.549 40.0652C340.549 38.9208 340.231 38.0732 339.595 37.5222C338.959 36.9607 337.974 36.6799 336.638 36.6799ZM368.831 32.643V47.6781C368.831 49.278 368.476 50.7243 367.766 52.017C367.066 53.2991 366.001 54.3162 364.57 55.0685C363.15 55.8208 361.359 56.1969 359.197 56.1969C356.123 56.1969 353.781 55.4129 352.17 53.8447C350.559 52.2766 349.754 50.1998 349.754 47.6145V32.643H354.666V46.8675C354.666 48.7853 355.058 50.131 355.843 50.9045C356.627 51.6779 357.787 52.0647 359.324 52.0647C360.405 52.0647 361.279 51.8792 361.947 51.5084C362.625 51.1376 363.124 50.5654 363.441 49.7919C363.759 49.0184 363.918 48.0331 363.918 46.8357V32.643H368.831ZM395.141 55.8791H388.877L378.767 38.301H378.624C378.666 39.0321 378.703 39.7685 378.735 40.5102C378.767 41.2519 378.798 41.9936 378.83 42.7353C378.862 43.4664 378.894 44.2027 378.926 44.9444V55.8791H374.522V32.643H380.738L390.833 50.0462H390.944C390.923 49.3257 390.896 48.6105 390.865 47.9006C390.833 47.1907 390.801 46.4808 390.769 45.7709C390.748 45.061 390.727 44.3511 390.706 43.6412V32.643H395.141V55.8791ZM414.393 55.8791H401.007V32.643H414.393V36.6799H405.935V41.7817H413.805V45.8186H405.935V51.8104H414.393V55.8791ZM346.972 98.6005H328.789V96.8919L337.334 87.9916C338.698 86.5745 339.844 85.2964 340.772 84.1574C341.712 83.0051 342.421 81.8528 342.898 80.7006C343.388 79.5483 343.633 78.257 343.633 76.8265C343.633 74.9591 343.083 73.5088 341.984 72.4757C340.898 71.4427 339.42 70.9261 337.552 70.9261C336.294 70.9261 335.082 71.1513 333.916 71.6016C332.763 72.0519 331.637 72.7141 330.538 73.5883L329.425 72.1777C330.233 71.5155 331.081 70.9592 331.969 70.5089C332.869 70.0586 333.79 69.7209 334.731 69.4957C335.671 69.2573 336.612 69.1381 337.552 69.1381C339.208 69.1381 340.639 69.456 341.845 70.0917C343.064 70.7142 344.011 71.595 344.686 72.734C345.362 73.873 345.7 75.2107 345.7 76.7471C345.7 78.3364 345.422 79.7801 344.865 81.078C344.322 82.3627 343.547 83.621 342.54 84.8527C341.533 86.0844 340.341 87.4089 338.963 88.826L331.392 96.6535V96.733H346.972V98.6005ZM370.659 83.9984C370.659 86.4222 370.473 88.5678 370.103 90.4353C369.732 92.3027 369.169 93.8722 368.413 95.1437C367.658 96.4151 366.698 97.3754 365.532 98.0243C364.366 98.6733 362.988 98.9978 361.399 98.9978C359.385 98.9978 357.689 98.4349 356.311 97.3091C354.934 96.1834 353.887 94.5079 353.172 92.2829C352.47 90.0578 352.119 87.2963 352.119 83.9984C352.119 81.0582 352.417 78.4689 353.013 76.2305C353.622 73.9922 354.609 72.244 355.974 70.9857C357.338 69.7275 359.153 69.0984 361.419 69.0984C363.671 69.0984 365.472 69.7143 366.824 70.946C368.188 72.1777 369.169 73.9128 369.765 76.1511C370.361 78.3762 370.659 80.9919 370.659 83.9984ZM354.145 83.9984C354.145 86.9784 354.404 89.4485 354.92 91.4087C355.437 93.3557 356.232 94.8126 357.305 95.7794C358.378 96.7462 359.743 97.2297 361.399 97.2297C363.108 97.2297 364.492 96.7462 365.552 95.7794C366.612 94.8126 367.387 93.349 367.877 91.3889C368.38 89.4287 368.632 86.9652 368.632 83.9984C368.632 81.2701 368.413 78.9258 367.976 76.9656C367.552 75.0054 366.817 73.5022 365.77 72.4559C364.724 71.4096 363.273 70.8864 361.419 70.8864C359.604 70.8864 358.166 71.4228 357.106 72.4956C356.047 73.5684 355.285 75.0849 354.821 77.0451C354.371 79.0053 354.145 81.3231 354.145 83.9984ZM393.472 98.6005H375.289V96.8919L383.834 87.9916C385.198 86.5745 386.344 85.2964 387.272 84.1574C388.212 83.0051 388.921 81.8528 389.398 80.7006C389.888 79.5483 390.133 78.257 390.133 76.8265C390.133 74.9591 389.584 73.5088 388.484 72.4757C387.398 71.4427 385.92 70.9261 384.053 70.9261C382.794 70.9261 381.582 71.1513 380.416 71.6016C379.263 72.0519 378.137 72.7141 377.038 73.5883L375.925 72.1777C376.733 71.5155 377.581 70.9592 378.469 70.5089C379.369 70.0586 380.29 69.7209 381.231 69.4957C382.171 69.2573 383.112 69.1381 384.053 69.1381C385.709 69.1381 387.139 69.456 388.345 70.0917C389.564 70.7142 390.511 71.595 391.187 72.734C391.862 73.873 392.2 75.2107 392.2 76.7471C392.2 78.3364 391.922 79.7801 391.365 81.078C390.822 82.3627 390.047 83.621 389.04 84.8527C388.034 86.0844 386.841 87.4089 385.463 88.826L377.892 96.6535V96.733H393.472V98.6005ZM407.462 81.0979C409.422 81.0979 411.111 81.429 412.529 82.0912C413.96 82.7535 415.059 83.7203 415.828 84.9918C416.609 86.25 417 87.793 417 89.6207C417 91.5544 416.569 93.2232 415.708 94.6271C414.847 96.031 413.628 97.1105 412.052 97.8654C410.489 98.6203 408.641 98.9978 406.508 98.9978C404.971 98.9978 403.573 98.8521 402.315 98.5607C401.069 98.2561 400.016 97.8522 399.155 97.3489V95.3225C400.082 95.8787 401.189 96.3357 402.474 96.6933C403.772 97.0509 405.123 97.2297 406.528 97.2297C408.223 97.2297 409.7 96.9449 410.959 96.3754C412.218 95.7926 413.191 94.945 413.88 93.8325C414.582 92.7199 414.933 91.3557 414.933 89.7399C414.933 87.5811 414.278 85.899 412.966 84.6938C411.654 83.4753 409.674 82.866 407.024 82.866C405.938 82.866 404.898 82.9455 403.904 83.1044C402.924 83.2501 402.01 83.4355 401.162 83.6607L400.01 82.8462L401.182 69.5553H415.132V71.4228H402.911L402.017 81.7734C402.613 81.6277 403.361 81.482 404.262 81.3363C405.176 81.1774 406.243 81.0979 407.462 81.0979Z" stroke="white"/>
</svg>
